<svg width="80" height="80" viewBox="0 0 80 80" fill="none" xmlns="http://www.w3.org/2000/svg">
<path d="M45 10V15H61.465L42.245 34.2225C38.2128 31.0897 33.1382 29.6116 28.0545 30.0891C22.9707 30.5666 18.2601 32.9638 14.8819 36.7926C11.5036 40.6215 9.71174 45.5939 9.87112 50.6976C10.0305 55.8012 12.1291 60.6522 15.7397 64.2628C19.3503 67.8733 24.2013 69.972 29.3049 70.1314C34.4085 70.2907 39.381 68.4989 43.2099 65.1206C47.0387 61.7423 49.4359 57.0317 49.9134 51.948C50.3909 46.8643 48.9128 41.7896 45.78 37.7575L65 18.535V35H70V10H45ZM30 65C27.0333 65 24.1332 64.1203 21.6664 62.4721C19.1997 60.8238 17.2771 58.4812 16.1418 55.7403C15.0065 52.9994 14.7094 49.9834 15.2882 47.0737C15.867 44.1639 17.2956 41.4912 19.3934 39.3934C21.4912 37.2956 24.1639 35.867 27.0736 35.2882C29.9833 34.7094 32.9993 35.0065 35.7402 36.1418C38.4811 37.2771 40.8238 39.1997 42.472 41.6665C44.1202 44.1332 45 47.0333 45 50C44.9953 53.9768 43.4135 57.7895 40.6015 60.6015C37.7894 63.4135 33.9768 64.9954 30 65Z" fill="#A26FFD"/>
</svg>
